<svg width="1200" height="630" viewBox="0 0 1200 630" fill="none" xmlns="http://www.w3.org/2000/svg">
  <defs>
    <linearGradient id="bg" x1="0" y1="0" x2="1" y2="1">
      <stop offset="0" stop-color="#a41f1d"/>
      <stop offset="1" stop-color="#796815"/>
    </linearGradient>
  </defs>
  <rect width="1200" height="630" rx="32" fill="url(#bg)"/>
  <circle cx="295" cy="189" r="223" fill="rgba(255,255,255,0.10)"/>
  <circle cx="980" cy="516" r="297" fill="rgba(255,255,255,0.06)"/>
  <circle cx="520" cy="500" r="120" fill="#51dee0" fill-opacity="0.12"/>
  <path d="M80 520 C 260 460, 380 540, 560 500 S 900 520, 1120 470" stroke="rgba(255,255,255,0.18)" stroke-width="6" fill="none"/>
  <path d="M120 420 C 280 360, 420 440, 620 400 S 920 420, 1080 360" stroke="rgba(255,255,255,0.12)" stroke-width="4" fill="none"/>

  <g transform="translate(820 150)" stroke="rgba(255,255,255,0.75)" stroke-width="6" fill="rgba(255,255,255,0.12)">
    <rect x="0" y="0" width="220" height="200" rx="20"/>
    <rect x="24" y="30" width="172" height="28" rx="12" fill="rgba(255,255,255,0.2)"/>
    <rect x="24" y="78" width="120" height="28" rx="12" fill="rgba(255,255,255,0.2)"/>
    <rect x="24" y="126" width="140" height="28" rx="12" fill="rgba(255,255,255,0.2)"/>
  </g>

</svg>
