<svg width="1200" height="630" viewBox="0 0 1200 630" fill="none" xmlns="http://www.w3.org/2000/svg">
  <defs>
    <linearGradient id="bg" x1="0" y1="0" x2="1" y2="1">
      <stop offset="0" stop-color="#a41d9d"/>
      <stop offset="1" stop-color="#791542"/>
    </linearGradient>
  </defs>
  <rect width="1200" height="630" rx="32" fill="url(#bg)"/>
  <circle cx="254" cy="224" r="221" fill="rgba(255,255,255,0.10)"/>
  <circle cx="923" cy="472" r="264" fill="rgba(255,255,255,0.06)"/>
  <circle cx="520" cy="500" r="120" fill="#51e058" fill-opacity="0.12"/>
  <path d="M80 520 C 260 460, 380 540, 560 500 S 900 520, 1120 470" stroke="rgba(255,255,255,0.18)" stroke-width="6" fill="none"/>
  <path d="M120 420 C 280 360, 420 440, 620 400 S 920 420, 1080 360" stroke="rgba(255,255,255,0.12)" stroke-width="4" fill="none"/>

  <g transform="translate(820 150)" stroke="rgba(255,255,255,0.75)" stroke-width="6" fill="rgba(255,255,255,0.12)">
    <rect x="0" y="0" width="220" height="140" rx="20"/>
    <path d="M60 140 L60 200 L120 140" fill="rgba(255,255,255,0.12)"/>
    <circle cx="70" cy="70" r="10" fill="rgba(255,255,255,0.4)"/>
    <circle cx="110" cy="70" r="10" fill="rgba(255,255,255,0.4)"/>
    <circle cx="150" cy="70" r="10" fill="rgba(255,255,255,0.4)"/>
  </g>

</svg>
