<svg width="1200" height="630" viewBox="0 0 1200 630" fill="none" xmlns="http://www.w3.org/2000/svg">
  <defs>
    <linearGradient id="bg" x1="0" y1="0" x2="1" y2="1">
      <stop offset="0" stop-color="#2B1A3A"/>
      <stop offset="0.52" stop-color="#3A3858"/>
      <stop offset="1" stop-color="#12293F"/>
    </linearGradient>
    <linearGradient id="leftGlow" x1="0" y1="0" x2="1" y2="1">
      <stop offset="0" stop-color="#FF9F6A" stop-opacity="0.44"/>
      <stop offset="1" stop-color="#FF6F61" stop-opacity="0.06"/>
    </linearGradient>
    <linearGradient id="rightGlow" x1="0" y1="0" x2="1" y2="1">
      <stop offset="0" stop-color="#8BD3FF" stop-opacity="0.34"/>
      <stop offset="1" stop-color="#6FE7DD" stop-opacity="0.06"/>
    </linearGradient>
  </defs>

  <rect width="1200" height="630" rx="36" fill="url(#bg)"/>

  <path d="M0 0H620V630H0V0Z" fill="url(#leftGlow)"/>
  <path d="M580 0H1200V630H580V0Z" fill="url(#rightGlow)"/>

  <circle cx="300" cy="145" r="180" fill="rgba(255,255,255,0.07)"/>
  <circle cx="930" cy="500" r="220" fill="rgba(255,255,255,0.06)"/>

  <path d="M600 70V560" stroke="rgba(255,255,255,0.22)" stroke-width="4" stroke-dasharray="12 14"/>

  <g opacity="0.9" stroke="rgba(255,255,255,0.7)" stroke-width="4" fill="none">
    <path d="M120 470C180 418 242 504 306 452C350 416 392 392 448 430C486 456 512 474 560 454"/>
    <path d="M90 540C168 498 242 584 322 530C370 498 430 484 490 520"/>
  </g>

  <g opacity="0.82" stroke="rgba(255,255,255,0.68)" stroke-width="4" fill="none">
    <path d="M690 430H1050"/>
    <path d="M690 470H1120"/>
    <path d="M690 510H980"/>
    <path d="M720 380H1110"/>
  </g>

  <g transform="translate(462 172)">
    <path d="M95 0H161L170 56H86L95 0Z" fill="rgba(255,255,255,0.2)" stroke="rgba(255,255,255,0.75)" stroke-width="4"/>
    <path d="M86 56H170L188 216H68L86 56Z" fill="rgba(255,255,255,0.14)" stroke="rgba(255,255,255,0.75)" stroke-width="4"/>
    <circle cx="104" cy="27" r="4" fill="rgba(255,255,255,0.85)"/>
    <circle cx="126" cy="27" r="4" fill="rgba(255,255,255,0.85)"/>
    <circle cx="148" cy="27" r="4" fill="rgba(255,255,255,0.85)"/>
    <circle cx="194" cy="230" r="3" fill="rgba(255,255,255,0.75)"/>
    <circle cx="220" cy="250" r="3" fill="rgba(255,255,255,0.75)"/>
    <circle cx="248" cy="270" r="3" fill="rgba(255,255,255,0.75)"/>
    <circle cx="272" cy="288" r="3" fill="rgba(255,255,255,0.75)"/>
    <circle cx="296" cy="304" r="3" fill="rgba(255,255,255,0.75)"/>
  </g>
</svg>
