<svg width="1200" height="630" viewBox="0 0 1200 630" fill="none" xmlns="http://www.w3.org/2000/svg">
  <defs>
    <linearGradient id="bg" x1="0" y1="0" x2="1" y2="1">
      <stop offset="0" stop-color="#2b5876"/>
      <stop offset="1" stop-color="#1b2a41"/>
    </linearGradient>
  </defs>
  <rect width="1200" height="630" rx="32" fill="url(#bg)"/>
  <circle cx="230" cy="150" r="250" fill="rgba(255,255,255,0.09)"/>
  <circle cx="980" cy="520" r="270" fill="rgba(255,255,255,0.06)"/>
  <path d="M80 520 C 260 460, 380 540, 560 500 S 900 520, 1120 470" stroke="rgba(255,255,255,0.18)" stroke-width="6" fill="none"/>
  <path d="M120 420 C 280 360, 420 440, 620 400 S 920 420, 1080 360" stroke="rgba(255,255,255,0.12)" stroke-width="4" fill="none"/>
  <g transform="translate(790 128)" stroke="rgba(255,255,255,0.78)" stroke-width="6" fill="rgba(255,255,255,0.12)">
    <circle cx="80" cy="90" r="42"/>
    <circle cx="240" cy="80" r="36"/>
    <path d="M20 250c24-48 118-48 142 0" fill="none"/>
    <path d="M176 240c18-36 92-36 114 0" fill="none"/>
    <line x1="120" y1="104" x2="204" y2="92"/>
  </g>
</svg>
