<svg width="1200" height="630" viewBox="0 0 1200 630" fill="none" xmlns="http://www.w3.org/2000/svg">
  <defs>
    <linearGradient id="bg" x1="0" y1="0" x2="1" y2="1">
      <stop offset="0" stop-color="#1d90a4"/>
      <stop offset="1" stop-color="#152e79"/>
    </linearGradient>
  </defs>
  <rect width="1200" height="630" rx="32" fill="url(#bg)"/>
  <circle cx="283" cy="134" r="247" fill="rgba(255,255,255,0.10)"/>
  <circle cx="977" cy="465" r="317" fill="rgba(255,255,255,0.06)"/>
  <circle cx="520" cy="500" r="120" fill="#e06751" fill-opacity="0.12"/>
  <path d="M80 520 C 260 460, 380 540, 560 500 S 900 520, 1120 470" stroke="rgba(255,255,255,0.18)" stroke-width="6" fill="none"/>
  <path d="M120 420 C 280 360, 420 440, 620 400 S 920 420, 1080 360" stroke="rgba(255,255,255,0.12)" stroke-width="4" fill="none"/>

  <g transform="translate(800 150)" stroke="rgba(255,255,255,0.75)" stroke-width="6" fill="rgba(255,255,255,0.12)">
    <rect x="0" y="0" width="260" height="180" rx="20"/>
    <circle cx="30" cy="30" r="10" fill="rgba(255,255,255,0.4)"/>
    <circle cx="60" cy="30" r="10" fill="rgba(255,255,255,0.4)"/>
    <circle cx="90" cy="30" r="10" fill="rgba(255,255,255,0.4)"/>
    <path d="M50 80 L90 120 L50 160" stroke="rgba(255,255,255,0.75)" stroke-width="10" fill="none"/>
    <path d="M210 80 L170 120 L210 160" stroke="rgba(255,255,255,0.75)" stroke-width="10" fill="none"/>
  </g>

</svg>
