<svg width="1200" height="630" viewBox="0 0 1200 630" fill="none" xmlns="http://www.w3.org/2000/svg">
  <defs>
    <linearGradient id="bg" x1="0" y1="0" x2="1" y2="1">
      <stop offset="0" stop-color="#0f4c5c"/>
      <stop offset="1" stop-color="#1b2a41"/>
    </linearGradient>
  </defs>
  <rect width="1200" height="630" rx="32" fill="url(#bg)"/>
  <circle cx="220" cy="140" r="240" fill="rgba(255,255,255,0.08)"/>
  <circle cx="980" cy="520" r="280" fill="rgba(255,255,255,0.06)"/>
  <path d="M80 520 C 260 460, 380 540, 560 500 S 900 520, 1120 470" stroke="rgba(255,255,255,0.18)" stroke-width="6" fill="none"/>
  <path d="M120 420 C 280 360, 420 440, 620 400 S 920 420, 1080 360" stroke="rgba(255,255,255,0.12)" stroke-width="4" fill="none"/>
  <g transform="translate(770 120)" stroke="rgba(255,255,255,0.78)" stroke-width="6" fill="rgba(255,255,255,0.12)">
    <circle cx="90" cy="86" r="44"/>
    <circle cx="258" cy="76" r="36"/>
    <circle cx="226" cy="236" r="40"/>
    <line x1="126" y1="94" x2="222" y2="82"/>
    <line x1="130" y1="128" x2="200" y2="208"/>
    <line x1="245" y1="114" x2="236" y2="192"/>
  </g>
</svg>
