<svg width="1200" height="630" viewBox="0 0 1200 630" fill="none" xmlns="http://www.w3.org/2000/svg">
  <defs>
    <linearGradient id="bg" x1="0" y1="0" x2="1" y2="1">
      <stop offset="0" stop-color="#1d5ea4"/>
      <stop offset="1" stop-color="#361579"/>
    </linearGradient>
  </defs>
  <rect width="1200" height="630" rx="32" fill="url(#bg)"/>
  <circle cx="217" cy="191" r="231" fill="rgba(255,255,255,0.10)"/>
  <circle cx="937" cy="448" r="271" fill="rgba(255,255,255,0.06)"/>
  <circle cx="520" cy="500" r="120" fill="#e09b51" fill-opacity="0.12"/>
  <path d="M80 520 C 260 460, 380 540, 560 500 S 900 520, 1120 470" stroke="rgba(255,255,255,0.18)" stroke-width="6" fill="none"/>
  <path d="M120 420 C 280 360, 420 440, 620 400 S 920 420, 1080 360" stroke="rgba(255,255,255,0.12)" stroke-width="4" fill="none"/>

  <g transform="translate(860 130)" stroke="rgba(255,255,255,0.75)" stroke-width="6" fill="rgba(255,255,255,0.12)">
    <path d="M70 0c-38 0-70 30-70 70 0 52 70 140 70 140s70-88 70-140C140 30 108 0 70 0z"/>
    <circle cx="70" cy="70" r="28" fill="rgba(255,255,255,0.2)"/>
  </g>

</svg>
